<svg width="407" xmlns="http://www.w3.org/2000/svg" height="795" id="screenshot-c62c452a-680b-8013-8005-ed939bebb575" fill="none" version="1.1"><style>@font-face {
    font-family: &apos;sourcesanspro&apos;;
    font-style: normal;
    font-weight: 400;
    font-display: block;
    src: url(https://design.penpot.app/fonts/sourcesanspro-regular.woff) format(&apos;woff&apos;);
  }</style><g id="shape-c62c452a-680b-8013-8005-ed939bebb575"><defs><clipPath id="frame-clip-c62c452a-680b-8013-8005-ed939bebb575-render-50" class="frame-clip frame-clip-def"><rect rx="0" ry="0" width="407" height="795" transform="matrix(1.000000, 0.000000, 0.000000, 1.000000, 0.000000, 0.000000)"/></clipPath></defs><g clip-path="url(#frame-clip-c62c452a-680b-8013-8005-ed939bebb575-render-50)"><g class="fills" id="fills-c62c452a-680b-8013-8005-ed939bebb575"><rect width="407" height="795" class="frame-background" transform="matrix(1.000000, 0.000000, 0.000000, 1.000000, 0.000000, 0.000000)" style="fill: rgb(255, 255, 255); fill-opacity: 1;" ry="0" rx="0"/></g><g class="frame-children"><g id="shape-de21292b-69b8-8088-8005-f251f94365eb"><rect rx="0" ry="0" x="38" y="373" transform="matrix(1.000000, 0.000000, 0.000000, 1.000000, 0.000000, 0.000000)" width="326" height="123" style="fill: rgb(177, 178, 181); fill-opacity: 0.3;" class="fills" id="fills-de21292b-69b8-8088-8005-f251f94365eb"/></g><g id="shape-de21292b-69b8-8088-8005-f252039652fb"><rect rx="0" ry="0" x="37" y="516" transform="matrix(1.000000, 0.000000, 0.000000, 1.000000, 0.000000, 0.000000)" width="326" height="123" style="fill: rgb(177, 178, 181); fill-opacity: 0.3;" class="fills" id="fills-de21292b-69b8-8088-8005-f252039652fb"/></g><g id="shape-de21292b-69b8-8088-8005-f252345aa8b0"><rect rx="0" ry="0" x="37" y="659" transform="matrix(1.000000, 0.000000, 0.000000, 1.000000, 0.000000, 0.000000)" width="326" height="123" style="fill: rgb(177, 178, 181); fill-opacity: 0.3;" class="fills" id="fills-de21292b-69b8-8088-8005-f252345aa8b0"/></g><g transform="matrix(1.000000, 0.000000, 0.000000, 1.000000, 0.000000, 0.000000)" class="text-container" id="shape-46c7b8c4-4029-807a-8005-ee67c2a52c04"><defs><pattern patternUnits="userSpaceOnUse" x="38" y="153" width="82.347" height="20.444" id="fill-0-render-54-0"><rect width="82.347" height="20.444" style="fill: rgb(0, 0, 0); fill-opacity: 1;"/></pattern></defs><text x="38" y="172.556" dominant-baseline="ideographic" textLength="82.347" lengthAdjust="spacingAndGlyphs" style="text-transform: none; font-family: sourcesanspro; letter-spacing: normal; font-style: normal; font-weight: 400; white-space: pre; font-size: 16px; text-decoration: none solid rgb(0, 0, 0); direction: ltr; fill: rgb(0, 0, 0); fill-opacity: 1;" class="fills" id="fills-46c7b8c4-4029-807a-8005-ee67c2a52c04">Nearest visit</text></g><g transform="matrix(1.000000, 0.000000, 0.000000, 1.000000, 0.000000, 0.000000)" class="text-container" id="shape-de21292b-69b8-8088-8005-f251f3b4bf5f"><defs><pattern patternUnits="userSpaceOnUse" x="38" y="330" width="81.059" height="21.111" id="fill-0-render-55-0"><rect width="81.059" height="21.111" style="fill: rgb(0, 0, 0); fill-opacity: 1;"/></pattern></defs><text x="38" y="350" dominant-baseline="ideographic" textLength="81.059" lengthAdjust="spacingAndGlyphs" style="text-transform: none; font-family: sourcesanspro; letter-spacing: normal; font-style: normal; font-weight: 400; white-space: pre; font-size: 16px; text-decoration: none solid rgb(0, 0, 0); direction: ltr; fill: rgb(0, 0, 0); fill-opacity: 1;" class="fills" id="fills-de21292b-69b8-8088-8005-f251f3b4bf5f">Future visits</text></g><g transform="matrix(1.000000, 0.000000, 0.000000, 1.000000, 0.000000, 0.000000)" class="text-container" id="shape-46c7b8c4-4029-807a-8005-ee5b26e1310f"><defs><pattern patternUnits="userSpaceOnUse" x="38" y="60" width="100.833" height="33.778" id="fill-0-render-56-0"><rect width="100.833" height="33.778" style="fill: rgb(0, 0, 0); fill-opacity: 1;"/></pattern></defs><text x="38" y="92" dominant-baseline="ideographic" textLength="100.833" lengthAdjust="spacingAndGlyphs" style="text-transform: none; font-family: sourcesanspro; letter-spacing: normal; font-style: normal; font-weight: 400; white-space: pre; font-size: 26px; text-decoration: none solid rgb(0, 0, 0); direction: ltr; fill: rgb(0, 0, 0); fill-opacity: 1;" class="fills" id="fills-46c7b8c4-4029-807a-8005-ee5b26e1310f">Schedule</text></g><g id="shape-46c7b8c4-4029-807a-8005-ee678fe2c1d1"><rect rx="0" ry="0" x="38" y="99" transform="matrix(1.000000, 0.000000, 0.000000, 1.000000, 0.000000, 0.000000)" width="106" height="39" style="fill: rgb(177, 178, 181); fill-opacity: 1;" class="fills" id="fills-46c7b8c4-4029-807a-8005-ee678fe2c1d1"/></g><g id="shape-46c7b8c4-4029-807a-8005-ee67950b1d79"><rect rx="0" ry="0" x="148" y="99" transform="matrix(1.000000, 0.000000, 0.000000, 1.000000, 0.000000, 0.000000)" width="106" height="39" style="fill: rgb(177, 178, 181); fill-opacity: 0.4;" class="fills" id="fills-46c7b8c4-4029-807a-8005-ee67950b1d79"/></g><g id="shape-46c7b8c4-4029-807a-8005-ee6796b087a9"><rect rx="0" ry="0" x="258" y="99" transform="matrix(1.000000, 0.000000, 0.000000, 1.000000, 0.000000, 0.000000)" width="106" height="39" style="fill: rgb(177, 178, 181); fill-opacity: 0.4;" class="fills" id="fills-46c7b8c4-4029-807a-8005-ee6796b087a9"/></g><g id="shape-de21292b-69b8-8088-8005-f253c4144e32"><ellipse cx="331" cy="697" rx="20" ry="20" transform="matrix(1.000000, 0.000000, 0.000000, 1.000000, 0.000000, 0.000000)" style="fill: rgb(177, 178, 181); fill-opacity: 1;" class="fills" id="fills-de21292b-69b8-8088-8005-f253c4144e32"/></g><g id="shape-de21292b-69b8-8088-8005-f251e66c6e7b"><rect rx="0" ry="0" x="38" y="187" transform="matrix(1.000000, 0.000000, 0.000000, 1.000000, 0.000000, 0.000000)" width="326" height="123" style="fill: rgb(177, 178, 181); fill-opacity: 0.3;" class="fills" id="fills-de21292b-69b8-8088-8005-f251e66c6e7b"/></g><g id="shape-de21292b-69b8-8088-8005-f25378cda306"><ellipse cx="331" cy="220" rx="20" ry="20" transform="matrix(1.000000, 0.000000, 0.000000, 1.000000, 0.000000, 0.000000)" style="fill: rgb(177, 178, 181); fill-opacity: 1;" class="fills" id="fills-de21292b-69b8-8088-8005-f25378cda306"/></g><g id="shape-de21292b-69b8-8088-8005-f25387e5dc70"><ellipse cx="331" cy="414" rx="20" ry="20" transform="matrix(1.000000, 0.000000, 0.000000, 1.000000, 0.000000, 0.000000)" style="fill: rgb(177, 178, 181); fill-opacity: 1;" class="fills" id="fills-de21292b-69b8-8088-8005-f25387e5dc70"/></g><g id="shape-de21292b-69b8-8088-8005-f2538b5d47ea"><ellipse cx="331" cy="554" rx="20" ry="20" transform="matrix(1.000000, 0.000000, 0.000000, 1.000000, 0.000000, 0.000000)" style="fill: rgb(177, 178, 181); fill-opacity: 1;" class="fills" id="fills-de21292b-69b8-8088-8005-f2538b5d47ea"/></g><g id="shape-de21292b-69b8-8088-8005-f2519af5c76f"><g class="fills" id="fills-de21292b-69b8-8088-8005-f2519af5c76f"><rect rx="0" ry="0" x="-6" y="710" width="419" height="85" transform="matrix(1.000000, 0.000000, 0.000000, 1.000000, 0.000000, 0.000000)" class="frame-background"/></g><g class="frame-children"><g id="shape-de21292b-69b8-8088-8005-f2519af5c770"><g class="fills" id="fills-de21292b-69b8-8088-8005-f2519af5c770"><rect rx="0" ry="0" x="-6" y="710" width="419" height="85" transform="matrix(1.000000, 0.000000, 0.000000, 1.000000, 0.000000, 0.000000)" class="frame-background"/></g><g class="frame-children"><g id="shape-de21292b-69b8-8088-8005-f2519af5c771"><rect rx="0" ry="0" x="-6" y="710" transform="matrix(1.000000, 0.000000, 0.000000, 1.000000, 0.000000, 0.000000)" width="419" height="85" style="fill: rgb(218, 212, 212); fill-opacity: 1;" class="fills" id="fills-de21292b-69b8-8088-8005-f2519af5c771"/></g><g id="shape-de21292b-69b8-8088-8005-f2519af61abe"><g class="fills" id="fills-de21292b-69b8-8088-8005-f2519af61abe"><rect rx="0" ry="0" x="319.222" y="723.444" width="45" height="65" transform="matrix(1.000000, 0.000000, 0.000000, 1.000000, 0.000000, 0.000000)" class="frame-background"/></g><g class="frame-children"><g id="shape-de21292b-69b8-8088-8005-f2519af61abf"><ellipse cx="341.722" cy="745.944" rx="22.5" ry="22.5" transform="matrix(1.000000, 0.000000, 0.000000, 1.000000, 0.000000, 0.000000)" style="fill: rgb(52, 80, 173); fill-opacity: 1;" class="fills" id="fills-de21292b-69b8-8088-8005-f2519af61abf"/></g><g transform="matrix(1.000000, 0.000000, 0.000000, 1.000000, 0.000000, 0.000000)" class="text-container" id="shape-de21292b-69b8-8088-8005-f2519af61ac0"><defs><pattern patternUnits="userSpaceOnUse" x="331.222" y="771.444" width="21.406" height="17.778" id="fill-0-render-70-0"><rect width="21.406" height="17.778" style="fill: rgb(52, 80, 173); fill-opacity: 1;"/></pattern></defs><text x="331.222" y="788.111" dominant-baseline="ideographic" textLength="21.406" lengthAdjust="spacingAndGlyphs" style="text-transform: none; font-family: sourcesanspro; letter-spacing: normal; font-style: normal; font-weight: 400; white-space: pre; font-size: 14px; text-decoration: none solid rgb(52, 80, 173); direction: ltr; fill: rgb(52, 80, 173); fill-opacity: 1;" class="fills" id="fills-de21292b-69b8-8088-8005-f2519af61ac0">Tab</text></g></g></g><g id="shape-de21292b-69b8-8088-8005-f2519af61ac1"><g class="fills" id="fills-de21292b-69b8-8088-8005-f2519af61ac1"><rect rx="0" ry="0" x="224.222" y="723.444" width="45" height="65" transform="matrix(1.000000, 0.000000, 0.000000, 1.000000, 0.000000, 0.000000)" class="frame-background"/></g><g class="frame-children"><g id="shape-de21292b-69b8-8088-8005-f2519af64429"><ellipse cx="246.722" cy="745.944" rx="22.5" ry="22.5" transform="matrix(1.000000, 0.000000, 0.000000, 1.000000, 0.000000, 0.000000)" style="fill: rgb(136, 153, 200); fill-opacity: 1;" class="fills" id="fills-de21292b-69b8-8088-8005-f2519af64429"/></g><g transform="matrix(1.000000, 0.000000, 0.000000, 1.000000, 0.000000, 0.000000)" class="text-container" id="shape-de21292b-69b8-8088-8005-f2519af6442a"><defs><pattern patternUnits="userSpaceOnUse" x="236.222" y="771.444" width="21.406" height="17.778" id="fill-0-render-73-0"><rect width="21.406" height="17.778" style="fill: rgb(136, 153, 200); fill-opacity: 1;"/></pattern></defs><text x="236.222" y="788.111" dominant-baseline="ideographic" textLength="21.406" lengthAdjust="spacingAndGlyphs" style="text-transform: none; font-family: sourcesanspro; letter-spacing: normal; font-style: normal; font-weight: 400; white-space: pre; font-size: 14px; text-decoration: none solid rgb(136, 153, 200); direction: ltr; fill: rgb(136, 153, 200); fill-opacity: 1;" class="fills" id="fills-de21292b-69b8-8088-8005-f2519af6442a">Tab</text></g></g></g><g id="shape-de21292b-69b8-8088-8005-f2519af6442b"><g class="fills" id="fills-de21292b-69b8-8088-8005-f2519af6442b"><rect rx="0" ry="0" x="127.222" y="723.444" width="45" height="65" transform="matrix(1.000000, 0.000000, 0.000000, 1.000000, 0.000000, 0.000000)" class="frame-background"/></g><g class="frame-children"><g id="shape-de21292b-69b8-8088-8005-f2519af6442c"><ellipse cx="149.722" cy="745.944" rx="22.5" ry="22.5" transform="matrix(1.000000, 0.000000, 0.000000, 1.000000, 0.000000, 0.000000)" style="fill: rgb(136, 153, 200); fill-opacity: 1;" class="fills" id="fills-de21292b-69b8-8088-8005-f2519af6442c"/></g><g transform="matrix(1.000000, 0.000000, 0.000000, 1.000000, 0.000000, 0.000000)" class="text-container" id="shape-de21292b-69b8-8088-8005-f2519af6442d"><defs><pattern patternUnits="userSpaceOnUse" x="139.222" y="771.444" width="21.406" height="17.778" id="fill-0-render-76-0"><rect width="21.406" height="17.778" style="fill: rgb(136, 153, 200); fill-opacity: 1;"/></pattern></defs><text x="139.222" y="788.111" dominant-baseline="ideographic" textLength="21.406" lengthAdjust="spacingAndGlyphs" style="text-transform: none; font-family: sourcesanspro; letter-spacing: normal; font-style: normal; font-weight: 400; white-space: pre; font-size: 14px; text-decoration: none solid rgb(136, 153, 200); direction: ltr; fill: rgb(136, 153, 200); fill-opacity: 1;" class="fills" id="fills-de21292b-69b8-8088-8005-f2519af6442d">Tab</text></g></g></g><g id="shape-de21292b-69b8-8088-8005-f2519af68079"><g class="fills" id="fills-de21292b-69b8-8088-8005-f2519af68079"><rect rx="0" ry="0" x="30.222" y="723.444" width="45" height="65" transform="matrix(1.000000, 0.000000, 0.000000, 1.000000, 0.000000, 0.000000)" class="frame-background"/></g><g class="frame-children"><g id="shape-de21292b-69b8-8088-8005-f2519af6807a"><ellipse cx="52.722" cy="745.944" rx="22.5" ry="22.5" transform="matrix(1.000000, 0.000000, 0.000000, 1.000000, 0.000000, 0.000000)" style="fill: rgb(136, 153, 200); fill-opacity: 1;" class="fills" id="fills-de21292b-69b8-8088-8005-f2519af6807a"/></g><g transform="matrix(1.000000, 0.000000, 0.000000, 1.000000, 0.000000, 0.000000)" class="text-container" id="shape-de21292b-69b8-8088-8005-f2519af6807b"><defs><pattern patternUnits="userSpaceOnUse" x="42.222" y="771.444" width="21.406" height="17.778" id="fill-0-render-79-0"><rect width="21.406" height="17.778" style="fill: rgb(136, 153, 200); fill-opacity: 1;"/></pattern></defs><text x="42.222" y="788.111" dominant-baseline="ideographic" textLength="21.406" lengthAdjust="spacingAndGlyphs" style="text-transform: none; font-family: sourcesanspro; letter-spacing: normal; font-style: normal; font-weight: 400; white-space: pre; font-size: 14px; text-decoration: none solid rgb(136, 153, 200); direction: ltr; fill: rgb(136, 153, 200); fill-opacity: 1;" class="fills" id="fills-de21292b-69b8-8088-8005-f2519af6807b">Tab</text></g></g></g></g></g></g></g></g></g></g></svg>